<?xml version="1.0" standalone="no"?>
<!DOCTYPE svg PUBLIC "-//W3C//DTD SVG 20010904//EN"
 "http://www.w3.org/TR/2001/REC-SVG-20010904/DTD/svg10.dtd">
<svg version="1.0" xmlns="http://www.w3.org/2000/svg"
 width="186.000000pt" height="193.000000pt" viewBox="0 0 186.000000 193.000000"
 preserveAspectRatio="xMidYMid meet">

<g transform="translate(0.000000,193.000000) scale(0.100000,-0.100000)"
fill="#000000" stroke="none">
<path d="M780 1919 c-87 -13 -231 -62 -307 -105 -213 -119 -382 -337 -444
-574 -33 -122 -33 -330 -1 -449 89 -329 334 -574 663 -662 119 -32 338 -32
454 0 345 94 606 373 670 716 21 107 16 296 -9 390 -89 332 -345 587 -668 665
-99 24 -267 33 -358 19z m169 -76 l24 -68 81 -16 c93 -18 182 -52 264 -100 75
-45 198 -168 246 -246 87 -145 127 -326 107 -483 -23 -183 -95 -326 -227 -457
-69 -68 -102 -91 -186 -133 -122 -60 -206 -80 -344 -80 -627 -1 -980 718 -597
1217 115 151 307 264 490 288 l52 7 27 74 c14 40 29 72 33 70 3 -2 17 -35 30
-73z"/>
<path d="M922 1405 l-1 -370 24 51 c52 117 52 97 13 406 l-36 283 0 -370z"/>
<path d="M705 1231 c110 -110 201 -201 202 -201 1 0 -15 40 -34 88 l-37 88
-90 61 c-50 33 -125 84 -166 113 -70 49 -63 40 125 -149z"/>
<path d="M1130 1225 c-107 -107 -190 -195 -185 -194 6 0 44 15 85 32 71 31 77
36 133 117 33 47 84 120 113 163 30 42 53 77 52 77 -2 0 -91 -88 -198 -195z"/>
<path d="M505 1064 c-301 -42 -303 -41 54 -43 184 0 332 1 330 3 -17 16 -157
66 -183 65 -17 -1 -107 -12 -201 -25z"/>
<path d="M935 1000 c-4 -6 8 -46 26 -90 l33 -80 155 -108 c85 -59 162 -111
171 -116 8 -4 -75 82 -185 193 -110 110 -195 201 -188 201 6 0 43 -14 83 -31
l73 -31 201 27 c110 15 224 30 251 35 30 4 -83 8 -282 9 -215 1 -334 -3 -338
-9z"/>
<path d="M803 968 l-72 -30 -115 -165 -115 -164 197 190 c108 104 198 186 200
182 1 -4 -11 -40 -28 -80 l-31 -72 36 -267 c19 -146 38 -268 40 -271 3 -2 5
155 5 350 l0 355 -22 1 c-13 0 -55 -13 -95 -29z"/>
</g>
</svg>
